<svg xmlns="http://www.w3.org/2000/svg" xmlns:xlink="http://www.w3.org/1999/xlink" viewBox="0 0 84 84" version="1.1" xml:space="preserve" style="" x="0px" y="0px" fill-rule="evenodd" clip-rule="evenodd" stroke-linejoin="round" stroke-miterlimit="1.41421" preserveAspectRatio="none" width="100%" height="100%" class="" fill="rgba(100, 189, 62, 1)"><path d="M42,1.837C64.166,1.837 82.163,19.834 82.163,42C82.163,64.166 64.166,82.163 42,82.163C19.834,82.163 1.838,64.166 1.838,42C1.838,19.834 19.834,1.837 42,1.837ZM28.396,64.999C29.978,65.07 31.584,64.502 32.791,63.295L67.117,28.968C69.398,26.688 69.398,22.986 67.117,20.705C64.837,18.425 61.135,18.425 58.854,20.705L28.396,51.164L21.636,44.404C19.355,42.123 15.653,42.123 13.372,44.404C11.092,46.684 11.092,50.386 13.372,52.667L24,63.295C25.208,64.502 26.813,65.07 28.396,64.999Z" style=""></path></svg>