<?xml version="1.0" encoding="utf-8"?>
<!-- Generator: Adobe Illustrator 24.1.2, SVG Export Plug-In . SVG Version: 6.00 Build 0)  -->
<svg version="1.1" id="Layer_1" xmlns="http://www.w3.org/2000/svg" xmlns:xlink="http://www.w3.org/1999/xlink" x="0px" y="0px"
	 viewBox="0 0 100 100" style="enable-background:new 0 0 100 100;" xml:space="preserve">
<style type="text/css">
	.st0{fill:#FFFFFF;stroke:#D0280A;}
	.st1{fill:url(#SVGID_1_);}
</style>
<path class="st0" d="M56.7,5.9l0.2,0.2L57.2,6l8-3l4.8,7.1l0.2,0.2l0.3,0l8.6-0.3l2.3,8.3l0.1,0.3l0.3,0.1l8.3,2.3l-0.3,8.6l0,0.3
	l0.2,0.2l7.1,4.8l-3,8l-0.1,0.3l0.2,0.2l5.3,6.7l-5.3,6.7l-0.2,0.2l0.1,0.3l3,8L89.8,70l-0.2,0.2l0,0.3l0.3,8.6l-8.3,2.3l-0.3,0.1
	l-0.1,0.3L79,89.9l-8.6-0.3l-0.3,0L70,89.8l-4.8,7.1l-8-3l-0.3-0.1l-0.2,0.2L50,99.4l-6.7-5.3l-0.2-0.2L42.8,94l-8,3L30,89.8
	l-0.2-0.2l-0.3,0L21,89.9l-2.3-8.3l-0.1-0.3l-0.3-0.1L10.1,79l0.3-8.6l0-0.3L10.2,70l-7.1-4.8l3-8l0.1-0.3l-0.2-0.2L0.6,50l5.3-6.7
	l0.2-0.2L6,42.8l-3-8l7.1-4.8l0.2-0.2l0-0.3L10.1,21l8.3-2.3l0.3-0.1l0.1-0.3l2.3-8.3l8.6,0.3l0.3,0l0.2-0.2l4.8-7.1l8,3l0.3,0.1
	l0.2-0.2L50,0.6L56.7,5.9z"/>
<linearGradient id="SVGID_1_" gradientUnits="userSpaceOnUse" x1="50" y1="99" x2="50" y2="5" gradientTransform="matrix(1 0 0 -1 0 102)">
	<stop  offset="0" style="stop-color:#FF4040"/>
	<stop  offset="1" style="stop-color:#C40505"/>
</linearGradient>
<path class="st1" d="M50,3l6.6,5.2l7.9-2.9l4.7,7l8.4-0.3l2.3,8.1l8.1,2.3l-0.3,8.4l7,4.7l-2.9,7.9L97,50l-5.2,6.6l2.9,7.9l-7,4.7
	l0.3,8.4l-8.1,2.3L77.6,88l-8.4-0.3l-4.7,7l-7.9-2.9L50,97l-6.6-5.2l-7.9,2.9l-4.7-7L22.4,88l-2.3-8.1L12,77.6l0.3-8.4l-7-4.7
	l2.9-7.9L3,50l5.2-6.6l-2.9-7.9l7-4.7L12,22.4l8.1-2.3l2.3-8.1l8.4,0.3l4.7-7l7.9,2.9L50,3z"/>
</svg>
